<mxfile host="app.diagrams.net" modified="2020-11-20T06:12:08.132Z" agent="5.0 (Windows NT 10.0; Win64; x64) AppleWebKit/537.36 (KHTML, like Gecko) Chrome/86.0.4240.198 Safari/537.36" etag="_jAEPsAxXwSQn49biC91" version="13.10.0" type="github">
  <diagram name="Page-1" id="8ce9d11a-91a2-4d17-14d8-a56ed91bf033">
    <mxGraphModel dx="4813" dy="2807" grid="1" gridSize="10" guides="1" tooltips="1" connect="1" arrows="1" fold="1" page="1" pageScale="1" pageWidth="1920" pageHeight="1200" background="#ffffff" math="0" shadow="0">
      <root>
        <mxCell id="0" />
        <mxCell id="1" parent="0" />
        <mxCell id="dPuqAsSQv-2_A22P20ct-1" value="HTML" style="ellipse;whiteSpace=wrap;html=1;fillColor=#ffe6cc;strokeColor=#d79b00;" vertex="1" parent="1">
          <mxGeometry x="170" y="1640" width="120" height="80" as="geometry" />
        </mxCell>
        <mxCell id="dPuqAsSQv-2_A22P20ct-2" value="main.html" style="shape=note;whiteSpace=wrap;html=1;backgroundOutline=1;darkOpacity=0.05;fillColor=#ffe6cc;strokeColor=#d79b00;" vertex="1" parent="1">
          <mxGeometry x="630" y="1010" width="80" height="100" as="geometry" />
        </mxCell>
        <mxCell id="dPuqAsSQv-2_A22P20ct-3" value="store.html" style="shape=note;whiteSpace=wrap;html=1;backgroundOutline=1;darkOpacity=0.05;fillColor=#ffe6cc;strokeColor=#d79b00;" vertex="1" parent="1">
          <mxGeometry x="530" y="1290" width="80" height="100" as="geometry" />
        </mxCell>
        <mxCell id="dPuqAsSQv-2_A22P20ct-4" value="produit.html" style="shape=note;whiteSpace=wrap;html=1;backgroundOutline=1;darkOpacity=0.05;fillColor=#ffe6cc;strokeColor=#d79b00;" vertex="1" parent="1">
          <mxGeometry x="170" y="690" width="80" height="100" as="geometry" />
        </mxCell>
        <mxCell id="dPuqAsSQv-2_A22P20ct-6" value="about.html" style="shape=note;whiteSpace=wrap;html=1;backgroundOutline=1;darkOpacity=0.05;fillColor=#ffe6cc;strokeColor=#d79b00;" vertex="1" parent="1">
          <mxGeometry x="350" y="1190" width="80" height="100" as="geometry" />
        </mxCell>
        <mxCell id="dPuqAsSQv-2_A22P20ct-7" value="CSS" style="ellipse;whiteSpace=wrap;html=1;fillColor=#f8cecc;strokeColor=#b85450;" vertex="1" parent="1">
          <mxGeometry x="-120" y="-120" width="120" height="80" as="geometry" />
        </mxCell>
        <mxCell id="dPuqAsSQv-2_A22P20ct-8" value="main.css" style="shape=note;whiteSpace=wrap;html=1;backgroundOutline=1;darkOpacity=0.05;fillColor=#f8cecc;strokeColor=#b85450;" vertex="1" parent="1">
          <mxGeometry x="-40" y="330" width="80" height="100" as="geometry" />
        </mxCell>
        <mxCell id="dPuqAsSQv-2_A22P20ct-9" value="store.css" style="shape=note;whiteSpace=wrap;html=1;backgroundOutline=1;darkOpacity=0.05;fillColor=#f8cecc;strokeColor=#b85450;" vertex="1" parent="1">
          <mxGeometry x="30" y="220" width="80" height="100" as="geometry" />
        </mxCell>
        <mxCell id="dPuqAsSQv-2_A22P20ct-10" value="produit.css" style="shape=note;whiteSpace=wrap;html=1;backgroundOutline=1;darkOpacity=0.05;fillColor=#f8cecc;strokeColor=#b85450;" vertex="1" parent="1">
          <mxGeometry x="-110" y="430" width="80" height="100" as="geometry" />
        </mxCell>
        <mxCell id="dPuqAsSQv-2_A22P20ct-13" value="blog.css" style="shape=note;whiteSpace=wrap;html=1;backgroundOutline=1;darkOpacity=0.05;fillColor=#f8cecc;strokeColor=#b85450;" vertex="1" parent="1">
          <mxGeometry x="180" y="10" width="80" height="100" as="geometry" />
        </mxCell>
        <mxCell id="dPuqAsSQv-2_A22P20ct-15" value="about.css" style="shape=note;whiteSpace=wrap;html=1;backgroundOutline=1;darkOpacity=0.05;fillColor=#f8cecc;strokeColor=#b85450;" vertex="1" parent="1">
          <mxGeometry x="110" y="190" width="80" height="100" as="geometry" />
        </mxCell>
        <mxCell id="dPuqAsSQv-2_A22P20ct-16" value="javascript" style="ellipse;whiteSpace=wrap;html=1;fillColor=#fad9d5;strokeColor=#ae4132;" vertex="1" parent="1">
          <mxGeometry x="1690" y="1370" width="120" height="80" as="geometry" />
        </mxCell>
        <mxCell id="dPuqAsSQv-2_A22P20ct-17" value="main.js" style="shape=note;whiteSpace=wrap;html=1;backgroundOutline=1;darkOpacity=0.05;fillColor=#fad9d5;strokeColor=#ae4132;" vertex="1" parent="1">
          <mxGeometry x="980" y="930" width="80" height="100" as="geometry" />
        </mxCell>
        <mxCell id="dPuqAsSQv-2_A22P20ct-18" value="store.js" style="shape=note;whiteSpace=wrap;html=1;backgroundOutline=1;darkOpacity=0.05;fillColor=#fad9d5;strokeColor=#ae4132;" vertex="1" parent="1">
          <mxGeometry x="1120" y="1100" width="80" height="100" as="geometry" />
        </mxCell>
        <mxCell id="dPuqAsSQv-2_A22P20ct-19" value="produit.js" style="shape=note;whiteSpace=wrap;html=1;backgroundOutline=1;darkOpacity=0.05;fillColor=#fad9d5;strokeColor=#ae4132;" vertex="1" parent="1">
          <mxGeometry x="950" y="510" width="80" height="100" as="geometry" />
        </mxCell>
        <mxCell id="dPuqAsSQv-2_A22P20ct-21" value="footer.js" style="shape=note;whiteSpace=wrap;html=1;backgroundOutline=1;darkOpacity=0.05;fillColor=#fad9d5;strokeColor=#ae4132;" vertex="1" parent="1">
          <mxGeometry x="1590" y="620" width="80" height="100" as="geometry" />
        </mxCell>
        <mxCell id="dPuqAsSQv-2_A22P20ct-22" value="&#xa;&#xa;&lt;span style=&quot;color: rgb(0, 0, 0); font-family: helvetica; font-size: 12px; font-style: normal; font-weight: 400; letter-spacing: normal; text-align: center; text-indent: 0px; text-transform: none; word-spacing: 0px; background-color: rgb(248, 249, 250); display: inline; float: none;&quot;&gt;connextion.js&lt;/span&gt;&#xa;&#xa;" style="shape=note;whiteSpace=wrap;html=1;backgroundOutline=1;darkOpacity=0.05;fillColor=#fad9d5;strokeColor=#ae4132;" vertex="1" parent="1">
          <mxGeometry x="1730" y="890" width="80" height="100" as="geometry" />
        </mxCell>
        <mxCell id="dPuqAsSQv-2_A22P20ct-25" value="php" style="ellipse;whiteSpace=wrap;html=1;fillColor=#e1d5e7;strokeColor=#9673a6;" vertex="1" parent="1">
          <mxGeometry x="1230" y="-180" width="120" height="80" as="geometry" />
        </mxCell>
        <mxCell id="dPuqAsSQv-2_A22P20ct-26" value="produit.php" style="shape=note;whiteSpace=wrap;html=1;backgroundOutline=1;darkOpacity=0.05;fillColor=#e1d5e7;strokeColor=#9673a6;" vertex="1" parent="1">
          <mxGeometry x="720" y="190" width="80" height="100" as="geometry" />
        </mxCell>
        <mxCell id="dPuqAsSQv-2_A22P20ct-27" value="store.php" style="shape=note;whiteSpace=wrap;html=1;backgroundOutline=1;darkOpacity=0.05;fillColor=#e1d5e7;strokeColor=#9673a6;" vertex="1" parent="1">
          <mxGeometry x="1370" y="370" width="80" height="100" as="geometry" />
        </mxCell>
        <mxCell id="dPuqAsSQv-2_A22P20ct-28" value="header.php" style="shape=note;whiteSpace=wrap;html=1;backgroundOutline=1;darkOpacity=0.05;fillColor=#e1d5e7;strokeColor=#9673a6;" vertex="1" parent="1">
          <mxGeometry x="1830" y="680" width="80" height="100" as="geometry" />
        </mxCell>
        <mxCell id="dPuqAsSQv-2_A22P20ct-29" value="footer.php" style="shape=note;whiteSpace=wrap;html=1;backgroundOutline=1;darkOpacity=0.05;fillColor=#e1d5e7;strokeColor=#9673a6;" vertex="1" parent="1">
          <mxGeometry x="1520" y="410" width="80" height="100" as="geometry" />
        </mxCell>
        <mxCell id="dPuqAsSQv-2_A22P20ct-30" value="achat.php" style="shape=note;whiteSpace=wrap;html=1;backgroundOutline=1;darkOpacity=0.05;fillColor=#e1d5e7;strokeColor=#9673a6;" vertex="1" parent="1">
          <mxGeometry x="760" y="330" width="80" height="100" as="geometry" />
        </mxCell>
        <mxCell id="dPuqAsSQv-2_A22P20ct-31" value="connecte.php" style="shape=note;whiteSpace=wrap;html=1;backgroundOutline=1;darkOpacity=0.05;fillColor=#e1d5e7;strokeColor=#9673a6;" vertex="1" parent="1">
          <mxGeometry x="1790" y="250" width="80" height="100" as="geometry" />
        </mxCell>
        <mxCell id="dPuqAsSQv-2_A22P20ct-32" value="connexion.php" style="shape=note;whiteSpace=wrap;html=1;backgroundOutline=1;darkOpacity=0.05;fillColor=#e1d5e7;strokeColor=#9673a6;" vertex="1" parent="1">
          <mxGeometry x="1220" y="290" width="80" height="100" as="geometry" />
        </mxCell>
        <mxCell id="dPuqAsSQv-2_A22P20ct-33" value="deconnexion.php" style="shape=note;whiteSpace=wrap;html=1;backgroundOutline=1;darkOpacity=0.05;fillColor=#e1d5e7;strokeColor=#9673a6;" vertex="1" parent="1">
          <mxGeometry x="1060" y="260" width="80" height="100" as="geometry" />
        </mxCell>
        <mxCell id="dPuqAsSQv-2_A22P20ct-34" value="inscription.php" style="shape=note;whiteSpace=wrap;html=1;backgroundOutline=1;darkOpacity=0.05;fillColor=#e1d5e7;strokeColor=#9673a6;" vertex="1" parent="1">
          <mxGeometry x="1640" y="210" width="80" height="100" as="geometry" />
        </mxCell>
        <mxCell id="dPuqAsSQv-2_A22P20ct-35" value="panier.php" style="shape=note;whiteSpace=wrap;html=1;backgroundOutline=1;darkOpacity=0.05;fillColor=#e1d5e7;strokeColor=#9673a6;" vertex="1" parent="1">
          <mxGeometry x="2160" y="300" width="80" height="100" as="geometry" />
        </mxCell>
        <mxCell id="dPuqAsSQv-2_A22P20ct-36" value="paye.php" style="shape=note;whiteSpace=wrap;html=1;backgroundOutline=1;darkOpacity=0.05;fillColor=#e1d5e7;strokeColor=#9673a6;" vertex="1" parent="1">
          <mxGeometry x="2040" y="-10" width="80" height="100" as="geometry" />
        </mxCell>
        <mxCell id="dPuqAsSQv-2_A22P20ct-38" value="" style="endArrow=none;html=1;fillColor=#ffe6cc;strokeColor=#d79b00;" edge="1" parent="1" source="dPuqAsSQv-2_A22P20ct-5" target="dPuqAsSQv-2_A22P20ct-1">
          <mxGeometry width="50" height="50" relative="1" as="geometry">
            <mxPoint x="-70" y="1180" as="sourcePoint" />
            <mxPoint x="-20" y="1130" as="targetPoint" />
          </mxGeometry>
        </mxCell>
        <mxCell id="dPuqAsSQv-2_A22P20ct-40" value="" style="endArrow=none;html=1;fillColor=#ffe6cc;strokeColor=#d79b00;" edge="1" parent="1" source="dPuqAsSQv-2_A22P20ct-1" target="dPuqAsSQv-2_A22P20ct-2">
          <mxGeometry width="50" height="50" relative="1" as="geometry">
            <mxPoint x="800" y="680" as="sourcePoint" />
            <mxPoint x="850" y="630" as="targetPoint" />
          </mxGeometry>
        </mxCell>
        <mxCell id="dPuqAsSQv-2_A22P20ct-41" value="" style="endArrow=none;html=1;fillColor=#ffe6cc;strokeColor=#d79b00;" edge="1" parent="1" source="dPuqAsSQv-2_A22P20ct-1" target="dPuqAsSQv-2_A22P20ct-3">
          <mxGeometry width="50" height="50" relative="1" as="geometry">
            <mxPoint x="800" y="680" as="sourcePoint" />
            <mxPoint x="850" y="630" as="targetPoint" />
          </mxGeometry>
        </mxCell>
        <mxCell id="dPuqAsSQv-2_A22P20ct-43" value="" style="endArrow=none;html=1;fillColor=#ffe6cc;strokeColor=#d79b00;" edge="1" parent="1" source="dPuqAsSQv-2_A22P20ct-1" target="dPuqAsSQv-2_A22P20ct-6">
          <mxGeometry width="50" height="50" relative="1" as="geometry">
            <mxPoint x="800" y="680" as="sourcePoint" />
            <mxPoint x="850" y="630" as="targetPoint" />
          </mxGeometry>
        </mxCell>
        <mxCell id="dPuqAsSQv-2_A22P20ct-46" value="" style="endArrow=none;html=1;fillColor=#f8cecc;strokeColor=#b85450;" edge="1" parent="1" source="dPuqAsSQv-2_A22P20ct-7" target="dPuqAsSQv-2_A22P20ct-8">
          <mxGeometry width="50" height="50" relative="1" as="geometry">
            <mxPoint x="800" y="360" as="sourcePoint" />
            <mxPoint x="850" y="310" as="targetPoint" />
          </mxGeometry>
        </mxCell>
        <mxCell id="dPuqAsSQv-2_A22P20ct-47" value="" style="endArrow=none;html=1;fillColor=#f8cecc;strokeColor=#b85450;" edge="1" parent="1" source="dPuqAsSQv-2_A22P20ct-9" target="dPuqAsSQv-2_A22P20ct-7">
          <mxGeometry width="50" height="50" relative="1" as="geometry">
            <mxPoint x="800" y="360" as="sourcePoint" />
            <mxPoint x="850" y="310" as="targetPoint" />
          </mxGeometry>
        </mxCell>
        <mxCell id="dPuqAsSQv-2_A22P20ct-48" value="" style="endArrow=none;html=1;fillColor=#f8cecc;strokeColor=#b85450;" edge="1" parent="1" source="dPuqAsSQv-2_A22P20ct-10" target="dPuqAsSQv-2_A22P20ct-7">
          <mxGeometry width="50" height="50" relative="1" as="geometry">
            <mxPoint x="800" y="360" as="sourcePoint" />
            <mxPoint x="850" y="310" as="targetPoint" />
          </mxGeometry>
        </mxCell>
        <mxCell id="dPuqAsSQv-2_A22P20ct-52" value="" style="endArrow=none;html=1;fillColor=#f8cecc;strokeColor=#b85450;" edge="1" parent="1" source="dPuqAsSQv-2_A22P20ct-15" target="dPuqAsSQv-2_A22P20ct-7">
          <mxGeometry width="50" height="50" relative="1" as="geometry">
            <mxPoint x="800" y="360" as="sourcePoint" />
            <mxPoint x="-10" y="70" as="targetPoint" />
          </mxGeometry>
        </mxCell>
        <mxCell id="dPuqAsSQv-2_A22P20ct-53" value="" style="endArrow=none;html=1;fillColor=#f8cecc;strokeColor=#b85450;" edge="1" parent="1" source="dPuqAsSQv-2_A22P20ct-13" target="dPuqAsSQv-2_A22P20ct-7">
          <mxGeometry width="50" height="50" relative="1" as="geometry">
            <mxPoint x="800" y="360" as="sourcePoint" />
            <mxPoint x="850" y="310" as="targetPoint" />
          </mxGeometry>
        </mxCell>
        <mxCell id="dPuqAsSQv-2_A22P20ct-54" value="" style="endArrow=none;html=1;fillColor=#f8cecc;strokeColor=#b85450;" edge="1" parent="1" source="dPuqAsSQv-2_A22P20ct-12" target="dPuqAsSQv-2_A22P20ct-7">
          <mxGeometry width="50" height="50" relative="1" as="geometry">
            <mxPoint x="800" y="360" as="sourcePoint" />
            <mxPoint x="850" y="310" as="targetPoint" />
          </mxGeometry>
        </mxCell>
        <mxCell id="dPuqAsSQv-2_A22P20ct-56" value="" style="endArrow=none;html=1;fillColor=#fad9d5;strokeColor=#ae4132;" edge="1" parent="1" source="dPuqAsSQv-2_A22P20ct-16" target="dPuqAsSQv-2_A22P20ct-17">
          <mxGeometry width="50" height="50" relative="1" as="geometry">
            <mxPoint x="800" y="640" as="sourcePoint" />
            <mxPoint x="850" y="590" as="targetPoint" />
          </mxGeometry>
        </mxCell>
        <mxCell id="dPuqAsSQv-2_A22P20ct-57" value="" style="endArrow=none;html=1;fillColor=#fad9d5;strokeColor=#ae4132;" edge="1" parent="1" source="dPuqAsSQv-2_A22P20ct-16" target="dPuqAsSQv-2_A22P20ct-19">
          <mxGeometry width="50" height="50" relative="1" as="geometry">
            <mxPoint x="800" y="640" as="sourcePoint" />
            <mxPoint x="850" y="590" as="targetPoint" />
          </mxGeometry>
        </mxCell>
        <mxCell id="dPuqAsSQv-2_A22P20ct-58" value="" style="endArrow=none;html=1;" edge="1" parent="1" source="dPuqAsSQv-2_A22P20ct-16" target="dPuqAsSQv-2_A22P20ct-20">
          <mxGeometry width="50" height="50" relative="1" as="geometry">
            <mxPoint x="800" y="870" as="sourcePoint" />
            <mxPoint x="850" y="820" as="targetPoint" />
          </mxGeometry>
        </mxCell>
        <mxCell id="dPuqAsSQv-2_A22P20ct-59" value="" style="endArrow=none;html=1;fillColor=#fad9d5;strokeColor=#ae4132;" edge="1" parent="1" source="dPuqAsSQv-2_A22P20ct-16" target="dPuqAsSQv-2_A22P20ct-21">
          <mxGeometry width="50" height="50" relative="1" as="geometry">
            <mxPoint x="800" y="870" as="sourcePoint" />
            <mxPoint x="1506" y="660" as="targetPoint" />
          </mxGeometry>
        </mxCell>
        <mxCell id="dPuqAsSQv-2_A22P20ct-60" value="" style="endArrow=none;html=1;fillColor=#fad9d5;strokeColor=#ae4132;" edge="1" parent="1" source="dPuqAsSQv-2_A22P20ct-16" target="dPuqAsSQv-2_A22P20ct-22">
          <mxGeometry width="50" height="50" relative="1" as="geometry">
            <mxPoint x="800" y="870" as="sourcePoint" />
            <mxPoint x="850" y="820" as="targetPoint" />
          </mxGeometry>
        </mxCell>
        <mxCell id="dPuqAsSQv-2_A22P20ct-61" value="" style="endArrow=none;html=1;fillColor=#e1d5e7;strokeColor=#9673a6;" edge="1" parent="1" source="dPuqAsSQv-2_A22P20ct-25" target="dPuqAsSQv-2_A22P20ct-26">
          <mxGeometry width="50" height="50" relative="1" as="geometry">
            <mxPoint x="800" y="550" as="sourcePoint" />
            <mxPoint x="850" y="500" as="targetPoint" />
          </mxGeometry>
        </mxCell>
        <mxCell id="dPuqAsSQv-2_A22P20ct-62" value="" style="endArrow=none;html=1;fillColor=#e1d5e7;strokeColor=#9673a6;" edge="1" parent="1" source="dPuqAsSQv-2_A22P20ct-25" target="dPuqAsSQv-2_A22P20ct-28">
          <mxGeometry width="50" height="50" relative="1" as="geometry">
            <mxPoint x="800" y="550" as="sourcePoint" />
            <mxPoint x="990" y="390" as="targetPoint" />
          </mxGeometry>
        </mxCell>
        <mxCell id="dPuqAsSQv-2_A22P20ct-63" value="" style="endArrow=none;html=1;" edge="1" parent="1" source="dPuqAsSQv-2_A22P20ct-37" target="dPuqAsSQv-2_A22P20ct-25">
          <mxGeometry width="50" height="50" relative="1" as="geometry">
            <mxPoint x="800" y="550" as="sourcePoint" />
            <mxPoint x="850" y="500" as="targetPoint" />
          </mxGeometry>
        </mxCell>
        <mxCell id="dPuqAsSQv-2_A22P20ct-64" value="" style="endArrow=none;html=1;fillColor=#e1d5e7;strokeColor=#9673a6;" edge="1" parent="1" source="dPuqAsSQv-2_A22P20ct-36" target="dPuqAsSQv-2_A22P20ct-25">
          <mxGeometry width="50" height="50" relative="1" as="geometry">
            <mxPoint x="800" y="550" as="sourcePoint" />
            <mxPoint x="850" y="500" as="targetPoint" />
          </mxGeometry>
        </mxCell>
        <mxCell id="dPuqAsSQv-2_A22P20ct-65" value="" style="endArrow=none;html=1;fillColor=#e1d5e7;strokeColor=#9673a6;" edge="1" parent="1" source="dPuqAsSQv-2_A22P20ct-32" target="dPuqAsSQv-2_A22P20ct-25">
          <mxGeometry width="50" height="50" relative="1" as="geometry">
            <mxPoint x="800" y="550" as="sourcePoint" />
            <mxPoint x="850" y="500" as="targetPoint" />
          </mxGeometry>
        </mxCell>
        <mxCell id="dPuqAsSQv-2_A22P20ct-66" value="" style="endArrow=none;html=1;fillColor=#e1d5e7;strokeColor=#9673a6;" edge="1" parent="1" source="dPuqAsSQv-2_A22P20ct-37" target="dPuqAsSQv-2_A22P20ct-25">
          <mxGeometry width="50" height="50" relative="1" as="geometry">
            <mxPoint x="810" y="470" as="sourcePoint" />
            <mxPoint x="850" y="500" as="targetPoint" />
          </mxGeometry>
        </mxCell>
        <mxCell id="dPuqAsSQv-2_A22P20ct-67" value="" style="endArrow=none;html=1;fillColor=#e1d5e7;strokeColor=#9673a6;" edge="1" parent="1" source="dPuqAsSQv-2_A22P20ct-34" target="dPuqAsSQv-2_A22P20ct-25">
          <mxGeometry width="50" height="50" relative="1" as="geometry">
            <mxPoint x="800" y="550" as="sourcePoint" />
            <mxPoint x="850" y="500" as="targetPoint" />
          </mxGeometry>
        </mxCell>
        <mxCell id="dPuqAsSQv-2_A22P20ct-68" value="" style="endArrow=none;html=1;fillColor=#e1d5e7;strokeColor=#9673a6;" edge="1" parent="1" source="dPuqAsSQv-2_A22P20ct-25" target="dPuqAsSQv-2_A22P20ct-27">
          <mxGeometry width="50" height="50" relative="1" as="geometry">
            <mxPoint x="800" y="550" as="sourcePoint" />
            <mxPoint x="850" y="500" as="targetPoint" />
          </mxGeometry>
        </mxCell>
        <mxCell id="dPuqAsSQv-2_A22P20ct-69" value="" style="endArrow=none;html=1;fillColor=#e1d5e7;strokeColor=#9673a6;" edge="1" parent="1" source="dPuqAsSQv-2_A22P20ct-30" target="dPuqAsSQv-2_A22P20ct-25">
          <mxGeometry width="50" height="50" relative="1" as="geometry">
            <mxPoint x="800" y="550" as="sourcePoint" />
            <mxPoint x="850" y="500" as="targetPoint" />
          </mxGeometry>
        </mxCell>
        <mxCell id="dPuqAsSQv-2_A22P20ct-70" value="" style="endArrow=none;html=1;fillColor=#e1d5e7;strokeColor=#9673a6;" edge="1" parent="1" source="dPuqAsSQv-2_A22P20ct-31" target="dPuqAsSQv-2_A22P20ct-25">
          <mxGeometry width="50" height="50" relative="1" as="geometry">
            <mxPoint x="800" y="550" as="sourcePoint" />
            <mxPoint x="850" y="500" as="targetPoint" />
          </mxGeometry>
        </mxCell>
        <mxCell id="dPuqAsSQv-2_A22P20ct-71" value="" style="endArrow=none;html=1;fillColor=#e1d5e7;strokeColor=#9673a6;" edge="1" parent="1" source="dPuqAsSQv-2_A22P20ct-35" target="dPuqAsSQv-2_A22P20ct-25">
          <mxGeometry width="50" height="50" relative="1" as="geometry">
            <mxPoint x="800" y="550" as="sourcePoint" />
            <mxPoint x="850" y="500" as="targetPoint" />
          </mxGeometry>
        </mxCell>
        <mxCell id="dPuqAsSQv-2_A22P20ct-72" value="" style="endArrow=none;html=1;fillColor=#e1d5e7;strokeColor=#9673a6;" edge="1" parent="1" source="dPuqAsSQv-2_A22P20ct-29" target="dPuqAsSQv-2_A22P20ct-25">
          <mxGeometry width="50" height="50" relative="1" as="geometry">
            <mxPoint x="800" y="550" as="sourcePoint" />
            <mxPoint x="850" y="500" as="targetPoint" />
          </mxGeometry>
        </mxCell>
        <mxCell id="dPuqAsSQv-2_A22P20ct-77" value="" style="endArrow=classic;html=1;" edge="1" parent="1" source="dPuqAsSQv-2_A22P20ct-2" target="dPuqAsSQv-2_A22P20ct-17">
          <mxGeometry width="50" height="50" relative="1" as="geometry">
            <mxPoint x="800" y="660" as="sourcePoint" />
            <mxPoint x="850" y="610" as="targetPoint" />
          </mxGeometry>
        </mxCell>
        <mxCell id="dPuqAsSQv-2_A22P20ct-83" value="" style="endArrow=classic;html=1;" edge="1" parent="1" source="dPuqAsSQv-2_A22P20ct-4" target="dPuqAsSQv-2_A22P20ct-10">
          <mxGeometry width="50" height="50" relative="1" as="geometry">
            <mxPoint x="800" y="660" as="sourcePoint" />
            <mxPoint y="480" as="targetPoint" />
          </mxGeometry>
        </mxCell>
        <mxCell id="dPuqAsSQv-2_A22P20ct-84" value="" style="endArrow=classic;html=1;" edge="1" parent="1" source="dPuqAsSQv-2_A22P20ct-4" target="dPuqAsSQv-2_A22P20ct-19">
          <mxGeometry width="50" height="50" relative="1" as="geometry">
            <mxPoint x="800" y="660" as="sourcePoint" />
            <mxPoint x="850" y="610" as="targetPoint" />
          </mxGeometry>
        </mxCell>
        <mxCell id="dPuqAsSQv-2_A22P20ct-88" value="" style="endArrow=classic;html=1;" edge="1" parent="1" source="dPuqAsSQv-2_A22P20ct-3" target="dPuqAsSQv-2_A22P20ct-9">
          <mxGeometry width="50" height="50" relative="1" as="geometry">
            <mxPoint x="800" y="660" as="sourcePoint" />
            <mxPoint x="850" y="610" as="targetPoint" />
          </mxGeometry>
        </mxCell>
        <mxCell id="dPuqAsSQv-2_A22P20ct-91" value="" style="endArrow=classic;html=1;" edge="1" parent="1" source="dPuqAsSQv-2_A22P20ct-3" target="dPuqAsSQv-2_A22P20ct-18">
          <mxGeometry width="50" height="50" relative="1" as="geometry">
            <mxPoint x="800" y="660" as="sourcePoint" />
            <mxPoint x="850" y="610" as="targetPoint" />
          </mxGeometry>
        </mxCell>
        <mxCell id="dPuqAsSQv-2_A22P20ct-95" value="" style="endArrow=classic;html=1;" edge="1" parent="1" source="dPuqAsSQv-2_A22P20ct-5" target="dPuqAsSQv-2_A22P20ct-13">
          <mxGeometry width="50" height="50" relative="1" as="geometry">
            <mxPoint x="800" y="700" as="sourcePoint" />
            <mxPoint x="850" y="650" as="targetPoint" />
          </mxGeometry>
        </mxCell>
        <mxCell id="dPuqAsSQv-2_A22P20ct-102" value="" style="endArrow=classic;html=1;" edge="1" parent="1" source="dPuqAsSQv-2_A22P20ct-6" target="dPuqAsSQv-2_A22P20ct-15">
          <mxGeometry width="50" height="50" relative="1" as="geometry">
            <mxPoint x="800" y="700" as="sourcePoint" />
            <mxPoint x="850" y="650" as="targetPoint" />
          </mxGeometry>
        </mxCell>
        <mxCell id="dPuqAsSQv-2_A22P20ct-105" value="" style="shape=flexArrow;endArrow=classic;html=1;fillColor=#ffe6cc;strokeColor=#d79b00;" edge="1" parent="1" source="dPuqAsSQv-2_A22P20ct-1" target="dPuqAsSQv-2_A22P20ct-11">
          <mxGeometry width="50" height="50" relative="1" as="geometry">
            <mxPoint x="800" y="730" as="sourcePoint" />
            <mxPoint x="850" y="680" as="targetPoint" />
          </mxGeometry>
        </mxCell>
        <mxCell id="dPuqAsSQv-2_A22P20ct-11" value="header.css" style="shape=note;whiteSpace=wrap;html=1;backgroundOutline=1;darkOpacity=0.05;fillColor=#f8cecc;strokeColor=#b85450;" vertex="1" parent="1">
          <mxGeometry x="-220" y="720" width="80" height="100" as="geometry" />
        </mxCell>
        <mxCell id="dPuqAsSQv-2_A22P20ct-107" value="" style="shape=flexArrow;endArrow=classic;html=1;fillColor=#ffe6cc;strokeColor=#d79b00;" edge="1" parent="1" source="dPuqAsSQv-2_A22P20ct-1" target="dPuqAsSQv-2_A22P20ct-12">
          <mxGeometry width="50" height="50" relative="1" as="geometry">
            <mxPoint x="800" y="730" as="sourcePoint" />
            <mxPoint x="850" y="680" as="targetPoint" />
          </mxGeometry>
        </mxCell>
        <mxCell id="dPuqAsSQv-2_A22P20ct-20" value="header.js" style="shape=note;whiteSpace=wrap;html=1;backgroundOutline=1;darkOpacity=0.05;fillColor=#fad9d5;strokeColor=#ae4132;" vertex="1" parent="1">
          <mxGeometry x="2020" y="1000" width="80" height="100" as="geometry" />
        </mxCell>
        <mxCell id="dPuqAsSQv-2_A22P20ct-108" value="" style="endArrow=none;html=1;fillColor=#fad9d5;strokeColor=#ae4132;" edge="1" parent="1" source="dPuqAsSQv-2_A22P20ct-16" target="dPuqAsSQv-2_A22P20ct-20">
          <mxGeometry width="50" height="50" relative="1" as="geometry">
            <mxPoint x="1310.2031510634897" y="1156.7111733084917" as="sourcePoint" />
            <mxPoint x="870" y="1132.2222222222222" as="targetPoint" />
          </mxGeometry>
        </mxCell>
        <mxCell id="dPuqAsSQv-2_A22P20ct-109" value="" style="shape=flexArrow;endArrow=classic;html=1;fillColor=#ffe6cc;strokeColor=#d79b00;" edge="1" parent="1" source="dPuqAsSQv-2_A22P20ct-1" target="dPuqAsSQv-2_A22P20ct-20">
          <mxGeometry width="50" height="50" relative="1" as="geometry">
            <mxPoint x="800" y="730" as="sourcePoint" />
            <mxPoint x="850" y="680" as="targetPoint" />
          </mxGeometry>
        </mxCell>
        <mxCell id="dPuqAsSQv-2_A22P20ct-110" value="" style="endArrow=none;html=1;fillColor=#fad9d5;strokeColor=#ae4132;" edge="1" parent="1" source="dPuqAsSQv-2_A22P20ct-18" target="dPuqAsSQv-2_A22P20ct-16">
          <mxGeometry width="50" height="50" relative="1" as="geometry">
            <mxPoint x="800" y="730" as="sourcePoint" />
            <mxPoint x="850" y="680" as="targetPoint" />
          </mxGeometry>
        </mxCell>
        <mxCell id="dPuqAsSQv-2_A22P20ct-111" value="" style="shape=flexArrow;endArrow=classic;html=1;fillColor=#ffe6cc;strokeColor=#d79b00;" edge="1" parent="1" source="dPuqAsSQv-2_A22P20ct-1" target="dPuqAsSQv-2_A22P20ct-22">
          <mxGeometry width="50" height="50" relative="1" as="geometry">
            <mxPoint x="800" y="730" as="sourcePoint" />
            <mxPoint x="850" y="680" as="targetPoint" />
          </mxGeometry>
        </mxCell>
        <mxCell id="dPuqAsSQv-2_A22P20ct-112" value="" style="shape=flexArrow;endArrow=classic;html=1;fillColor=#ffe6cc;strokeColor=#d79b00;" edge="1" parent="1" source="dPuqAsSQv-2_A22P20ct-1" target="dPuqAsSQv-2_A22P20ct-21">
          <mxGeometry width="50" height="50" relative="1" as="geometry">
            <mxPoint x="800" y="730" as="sourcePoint" />
            <mxPoint x="850" y="680" as="targetPoint" />
          </mxGeometry>
        </mxCell>
        <mxCell id="dPuqAsSQv-2_A22P20ct-114" value="" style="endArrow=classic;html=1;" edge="1" parent="1" source="dPuqAsSQv-2_A22P20ct-22" target="dPuqAsSQv-2_A22P20ct-33">
          <mxGeometry width="50" height="50" relative="1" as="geometry">
            <mxPoint x="800" y="730" as="sourcePoint" />
            <mxPoint x="850" y="680" as="targetPoint" />
          </mxGeometry>
        </mxCell>
        <mxCell id="dPuqAsSQv-2_A22P20ct-115" value="" style="endArrow=classic;html=1;" edge="1" parent="1" source="dPuqAsSQv-2_A22P20ct-22" target="dPuqAsSQv-2_A22P20ct-32">
          <mxGeometry width="50" height="50" relative="1" as="geometry">
            <mxPoint x="800" y="730" as="sourcePoint" />
            <mxPoint x="850" y="680" as="targetPoint" />
          </mxGeometry>
        </mxCell>
        <mxCell id="dPuqAsSQv-2_A22P20ct-116" value="" style="endArrow=classic;html=1;" edge="1" parent="1" source="dPuqAsSQv-2_A22P20ct-22" target="dPuqAsSQv-2_A22P20ct-31">
          <mxGeometry width="50" height="50" relative="1" as="geometry">
            <mxPoint x="800" y="640" as="sourcePoint" />
            <mxPoint x="1520" y="450" as="targetPoint" />
          </mxGeometry>
        </mxCell>
        <mxCell id="dPuqAsSQv-2_A22P20ct-117" value="" style="endArrow=classic;html=1;" edge="1" parent="1" source="dPuqAsSQv-2_A22P20ct-22" target="dPuqAsSQv-2_A22P20ct-34">
          <mxGeometry width="50" height="50" relative="1" as="geometry">
            <mxPoint x="800" y="640" as="sourcePoint" />
            <mxPoint x="850" y="590" as="targetPoint" />
          </mxGeometry>
        </mxCell>
        <mxCell id="dPuqAsSQv-2_A22P20ct-120" value="" style="endArrow=classic;html=1;" edge="1" parent="1" source="dPuqAsSQv-2_A22P20ct-21" target="dPuqAsSQv-2_A22P20ct-29">
          <mxGeometry width="50" height="50" relative="1" as="geometry">
            <mxPoint x="800" y="720" as="sourcePoint" />
            <mxPoint x="1480" y="370" as="targetPoint" />
          </mxGeometry>
        </mxCell>
        <mxCell id="dPuqAsSQv-2_A22P20ct-121" value="" style="endArrow=classic;html=1;" edge="1" parent="1" source="dPuqAsSQv-2_A22P20ct-20" target="dPuqAsSQv-2_A22P20ct-28">
          <mxGeometry width="50" height="50" relative="1" as="geometry">
            <mxPoint x="800" y="720" as="sourcePoint" />
            <mxPoint x="850" y="670" as="targetPoint" />
          </mxGeometry>
        </mxCell>
        <mxCell id="dPuqAsSQv-2_A22P20ct-122" value="" style="endArrow=classic;html=1;" edge="1" parent="1" source="dPuqAsSQv-2_A22P20ct-20" target="dPuqAsSQv-2_A22P20ct-36">
          <mxGeometry width="50" height="50" relative="1" as="geometry">
            <mxPoint x="800" y="620" as="sourcePoint" />
            <mxPoint x="850" y="570" as="targetPoint" />
          </mxGeometry>
        </mxCell>
        <mxCell id="dPuqAsSQv-2_A22P20ct-123" value="" style="endArrow=classic;html=1;" edge="1" parent="1" source="dPuqAsSQv-2_A22P20ct-20" target="dPuqAsSQv-2_A22P20ct-35">
          <mxGeometry width="50" height="50" relative="1" as="geometry">
            <mxPoint x="800" y="620" as="sourcePoint" />
            <mxPoint x="850" y="570" as="targetPoint" />
          </mxGeometry>
        </mxCell>
        <mxCell id="dPuqAsSQv-2_A22P20ct-124" value="" style="endArrow=classic;html=1;" edge="1" parent="1" source="dPuqAsSQv-2_A22P20ct-20" target="dPuqAsSQv-2_A22P20ct-37">
          <mxGeometry width="50" height="50" relative="1" as="geometry">
            <mxPoint x="800" y="600" as="sourcePoint" />
            <mxPoint x="850" y="550" as="targetPoint" />
          </mxGeometry>
        </mxCell>
        <mxCell id="dPuqAsSQv-2_A22P20ct-125" value="" style="endArrow=classic;html=1;" edge="1" parent="1" source="dPuqAsSQv-2_A22P20ct-19" target="dPuqAsSQv-2_A22P20ct-26">
          <mxGeometry width="50" height="50" relative="1" as="geometry">
            <mxPoint x="800" y="770" as="sourcePoint" />
            <mxPoint x="960" y="7.5" as="targetPoint" />
          </mxGeometry>
        </mxCell>
        <mxCell id="dPuqAsSQv-2_A22P20ct-126" value="" style="endArrow=classic;html=1;" edge="1" parent="1" source="dPuqAsSQv-2_A22P20ct-19" target="dPuqAsSQv-2_A22P20ct-30">
          <mxGeometry width="50" height="50" relative="1" as="geometry">
            <mxPoint x="800" y="360" as="sourcePoint" />
            <mxPoint x="850" y="310" as="targetPoint" />
          </mxGeometry>
        </mxCell>
        <mxCell id="dPuqAsSQv-2_A22P20ct-127" value="" style="endArrow=classic;html=1;" edge="1" parent="1" source="dPuqAsSQv-2_A22P20ct-18" target="dPuqAsSQv-2_A22P20ct-27">
          <mxGeometry width="50" height="50" relative="1" as="geometry">
            <mxPoint x="870" y="700" as="sourcePoint" />
            <mxPoint x="920" y="650" as="targetPoint" />
          </mxGeometry>
        </mxCell>
        <mxCell id="dPuqAsSQv-2_A22P20ct-130" value="" style="endArrow=classic;html=1;" edge="1" parent="1" source="dPuqAsSQv-2_A22P20ct-29" target="dPuqAsSQv-2_A22P20ct-2">
          <mxGeometry width="50" height="50" relative="1" as="geometry">
            <mxPoint x="870" y="700" as="sourcePoint" />
            <mxPoint x="920" y="650" as="targetPoint" />
          </mxGeometry>
        </mxCell>
        <mxCell id="dPuqAsSQv-2_A22P20ct-131" value="" style="endArrow=classic;html=1;" edge="1" parent="1" source="dPuqAsSQv-2_A22P20ct-28" target="dPuqAsSQv-2_A22P20ct-2">
          <mxGeometry width="50" height="50" relative="1" as="geometry">
            <mxPoint x="870" y="700" as="sourcePoint" />
            <mxPoint x="920" y="650" as="targetPoint" />
          </mxGeometry>
        </mxCell>
        <mxCell id="dPuqAsSQv-2_A22P20ct-132" value="" style="endArrow=classic;html=1;" edge="1" parent="1" source="dPuqAsSQv-2_A22P20ct-28" target="dPuqAsSQv-2_A22P20ct-5">
          <mxGeometry width="50" height="50" relative="1" as="geometry">
            <mxPoint x="1460" y="240" as="sourcePoint" />
            <mxPoint x="920" y="650" as="targetPoint" />
          </mxGeometry>
        </mxCell>
        <mxCell id="dPuqAsSQv-2_A22P20ct-133" value="" style="endArrow=classic;html=1;" edge="1" parent="1" source="dPuqAsSQv-2_A22P20ct-28" target="dPuqAsSQv-2_A22P20ct-6">
          <mxGeometry width="50" height="50" relative="1" as="geometry">
            <mxPoint x="870" y="700" as="sourcePoint" />
            <mxPoint x="920" y="650" as="targetPoint" />
          </mxGeometry>
        </mxCell>
        <mxCell id="dPuqAsSQv-2_A22P20ct-134" value="" style="endArrow=classic;html=1;" edge="1" parent="1" source="dPuqAsSQv-2_A22P20ct-28" target="dPuqAsSQv-2_A22P20ct-3">
          <mxGeometry width="50" height="50" relative="1" as="geometry">
            <mxPoint x="870" y="700" as="sourcePoint" />
            <mxPoint x="920" y="650" as="targetPoint" />
          </mxGeometry>
        </mxCell>
        <mxCell id="dPuqAsSQv-2_A22P20ct-12" value="footer.css" style="shape=note;whiteSpace=wrap;html=1;backgroundOutline=1;darkOpacity=0.05;fillColor=#f8cecc;strokeColor=#b85450;" vertex="1" parent="1">
          <mxGeometry x="-370" y="780" width="80" height="100" as="geometry" />
        </mxCell>
        <mxCell id="dPuqAsSQv-2_A22P20ct-136" value="" style="endArrow=none;html=1;fillColor=#f8cecc;strokeColor=#b85450;" edge="1" parent="1" source="dPuqAsSQv-2_A22P20ct-11" target="dPuqAsSQv-2_A22P20ct-7">
          <mxGeometry width="50" height="50" relative="1" as="geometry">
            <mxPoint x="820" y="580" as="sourcePoint" />
            <mxPoint x="870" y="530" as="targetPoint" />
          </mxGeometry>
        </mxCell>
        <mxCell id="dPuqAsSQv-2_A22P20ct-5" value="blog.html" style="shape=note;whiteSpace=wrap;html=1;backgroundOutline=1;darkOpacity=0.05;fillColor=#ffe6cc;strokeColor=#d79b00;" vertex="1" parent="1">
          <mxGeometry x="270" y="910" width="80" height="100" as="geometry" />
        </mxCell>
        <mxCell id="dPuqAsSQv-2_A22P20ct-138" value="" style="endArrow=none;html=1;fillColor=#ffe6cc;strokeColor=#d79b00;" edge="1" parent="1" source="dPuqAsSQv-2_A22P20ct-1" target="dPuqAsSQv-2_A22P20ct-4">
          <mxGeometry width="50" height="50" relative="1" as="geometry">
            <mxPoint x="750" y="1060" as="sourcePoint" />
            <mxPoint x="800" y="1010" as="targetPoint" />
          </mxGeometry>
        </mxCell>
        <mxCell id="dPuqAsSQv-2_A22P20ct-37" value="supprimer.php" style="shape=note;whiteSpace=wrap;html=1;backgroundOutline=1;darkOpacity=0.05;fillColor=#e1d5e7;strokeColor=#9673a6;" vertex="1" parent="1">
          <mxGeometry x="2090" y="170" width="80" height="100" as="geometry" />
        </mxCell>
        <mxCell id="dPuqAsSQv-2_A22P20ct-142" value="" style="endArrow=none;html=1;fillColor=#e1d5e7;strokeColor=#9673a6;" edge="1" parent="1" source="dPuqAsSQv-2_A22P20ct-33" target="dPuqAsSQv-2_A22P20ct-25">
          <mxGeometry width="50" height="50" relative="1" as="geometry">
            <mxPoint x="750" y="100" as="sourcePoint" />
            <mxPoint x="800" y="50" as="targetPoint" />
          </mxGeometry>
        </mxCell>
      </root>
    </mxGraphModel>
  </diagram>
</mxfile>
